<svg width="26" height="24" viewBox="0 0 26 24" fill="none" xmlns="http://www.w3.org/2000/svg">
<mask id="mask0_257_455" style="mask-type:alpha" maskUnits="userSpaceOnUse" x="0" y="0" width="26" height="24">
<rect x="0.375" width="25.0852" height="24" fill="#D9D9D9"/>
</mask>
<g mask="url(#mask0_257_455)">
<path d="M1.42188 19V17.2C1.42188 16.6333 1.5743 16.1125 1.87916 15.6375C2.18401 15.1625 2.58903 14.8 3.09422 14.55C4.17428 14.0333 5.27175 13.6458 6.38665 13.3875C7.50154 13.1292 8.63386 13 9.7836 13C10.9333 13 12.0657 13.1292 13.1805 13.3875C14.2954 13.6458 15.3929 14.0333 16.473 14.55C16.9782 14.8 17.3832 15.1625 17.688 15.6375C17.9929 16.1125 18.1453 16.6333 18.1453 17.2V19C18.1453 19.2833 18.0452 19.5208 17.8448 19.7125C17.6445 19.9042 17.3963 20 17.1001 20H2.46709C2.17095 20 1.92271 19.9042 1.72237 19.7125C1.52204 19.5208 1.42188 19.2833 1.42188 19ZM19.7393 20C19.8961 19.8833 20.018 19.7375 20.1051 19.5625C20.1922 19.3875 20.2358 19.1917 20.2358 18.975V17C20.2358 16.2667 20.0224 15.5625 19.5956 14.8875C19.1688 14.2125 18.5634 13.6333 17.7795 13.15C18.6679 13.25 19.5041 13.4208 20.288 13.6625C21.0719 13.9042 21.8036 14.2 22.483 14.55C23.1101 14.8833 23.5892 15.2542 23.9201 15.6625C24.2511 16.0708 24.4166 16.5167 24.4166 17V19C24.4166 19.2833 24.3164 19.5208 24.1161 19.7125C23.9158 19.9042 23.6675 20 23.3714 20H19.7393ZM9.7836 12C8.63386 12 7.64962 11.6083 6.83087 10.825C6.01211 10.0417 5.60274 9.1 5.60274 8C5.60274 6.9 6.01211 5.95833 6.83087 5.175C7.64962 4.39167 8.63386 4 9.7836 4C10.9333 4 11.9176 4.39167 12.7363 5.175C13.5551 5.95833 13.9645 6.9 13.9645 8C13.9645 9.1 13.5551 10.0417 12.7363 10.825C11.9176 11.6083 10.9333 12 9.7836 12ZM20.2358 8C20.2358 9.1 19.8264 10.0417 19.0076 10.825C18.1889 11.6083 17.2046 12 16.0549 12C15.8633 12 15.6194 11.9792 15.3232 11.9375C15.0271 11.8958 14.7832 11.85 14.5916 11.8C15.0619 11.2667 15.4234 10.675 15.676 10.025C15.9286 9.375 16.0549 8.7 16.0549 8C16.0549 7.3 15.9286 6.625 15.676 5.975C15.4234 5.325 15.0619 4.73333 14.5916 4.2C14.8355 4.11667 15.0794 4.0625 15.3232 4.0375C15.5671 4.0125 15.811 4 16.0549 4C17.2046 4 18.1889 4.39167 19.0076 5.175C19.8264 5.95833 20.2358 6.9 20.2358 8ZM3.51231 18H16.0549V17.2C16.0549 17.0167 16.007 16.85 15.9112 16.7C15.8154 16.55 15.6891 16.4333 15.5323 16.35C14.5916 15.9 13.6422 15.5625 12.6841 15.3375C11.726 15.1125 10.7591 15 9.7836 15C8.80806 15 7.84124 15.1125 6.88313 15.3375C5.92501 15.5625 4.97561 15.9 4.03491 16.35C3.87813 16.4333 3.75183 16.55 3.65602 16.7C3.56021 16.85 3.51231 17.0167 3.51231 17.2V18ZM9.7836 10C10.3585 10 10.8506 9.80417 11.26 9.4125C11.6693 9.02083 11.874 8.55 11.874 8C11.874 7.45 11.6693 6.97917 11.26 6.5875C10.8506 6.19583 10.3585 6 9.7836 6C9.20873 6 8.71661 6.19583 8.30723 6.5875C7.89786 6.97917 7.69317 7.45 7.69317 8C7.69317 8.55 7.89786 9.02083 8.30723 9.4125C8.71661 9.80417 9.20873 10 9.7836 10Z" fill="#9B9A9C"/>
</g>
</svg>
