<svg width="26" height="24" viewBox="0 0 26 24" fill="none" xmlns="http://www.w3.org/2000/svg">
<mask id="mask0_257_452" style="mask-type:alpha" maskUnits="userSpaceOnUse" x="0" y="0" width="26" height="24">
<rect x="0.207031" width="25.0852" height="24" fill="#D9D9D9"/>
</mask>
<g mask="url(#mask0_257_452)">
<path d="M9.45701 17.8242L12.7494 15.9242L16.0419 17.8492L15.1796 14.2492L18.08 11.8492L14.265 11.5242L12.7494 8.12422L11.2339 11.4992L7.41883 11.8242L10.3193 14.2492L9.45701 17.8242ZM12.7494 18.2742L8.41179 20.7742C8.22017 20.8909 8.01983 20.9409 7.81079 20.9242C7.60175 20.9076 7.41883 20.8409 7.26205 20.7242C7.10527 20.6076 6.98333 20.4617 6.89623 20.2867C6.80913 20.1117 6.79171 19.9159 6.84397 19.6992L7.9937 14.9742L4.15254 11.7992C3.97833 11.6492 3.86946 11.4784 3.82591 11.2867C3.78236 11.0951 3.79542 10.9076 3.8651 10.7242C3.93478 10.5409 4.0393 10.3909 4.17867 10.2742C4.31803 10.1576 4.50965 10.0826 4.75354 10.0492L9.82283 9.62422L11.7826 5.17422C11.8697 4.97422 12.0047 4.82422 12.1876 4.72422C12.3705 4.62422 12.5578 4.57422 12.7494 4.57422C12.9411 4.57422 13.1283 4.62422 13.3112 4.72422C13.4942 4.82422 13.6292 4.97422 13.7163 5.17422L15.676 9.62422L20.7453 10.0492C20.9892 10.0826 21.1808 10.1576 21.3202 10.2742C21.4596 10.3909 21.5641 10.5409 21.6338 10.7242C21.7034 10.9076 21.7165 11.0951 21.673 11.2867C21.6294 11.4784 21.5205 11.6492 21.3463 11.7992L17.5052 14.9742L18.6549 19.6992C18.7072 19.9159 18.6897 20.1117 18.6026 20.2867C18.5155 20.4617 18.3936 20.6076 18.2368 20.7242C18.08 20.8409 17.8971 20.9076 17.6881 20.9242C17.479 20.9409 17.2787 20.8909 17.0871 20.7742L12.7494 18.2742Z" fill="#9B9A9C"/>
</g>
</svg>
